<?xml version="1.0" encoding="utf-8"?>
<!-- Generator: Adobe Illustrator 17.0.0, SVG Export Plug-In . SVG Version: 6.00 Build 0)  -->
<!DOCTYPE svg PUBLIC "-//W3C//DTD SVG 1.1//EN" "http://www.w3.org/Graphics/SVG/1.1/DTD/svg11.dtd">
<svg version="1.1" id="Calque_1" xmlns="http://www.w3.org/2000/svg" xmlns:xlink="http://www.w3.org/1999/xlink" x="0px" y="0px"
	 width="300px" height="80px" viewBox="0 0 300 80" enable-background="new 0 0 300 80" xml:space="preserve">
<g>
	<g>
		<path fill="#FFFFFF" d="M25.043,52.628c-5.963-9.923-5.355-18.743,1.346-25.261c5.389-5.241,15.539-8.047,25.214-0.974
			c7.498-6.781,14.383-14.303,22.249-20.702c1.625-1.322,5.192-3.931,5.014-3.805c0.156-0.085,1.096-0.675,1.218-0.572
			c0.143,0.121,0.278,0.286-0.424,1.247c-0.701,0.962-1.295,2.03-2.12,2.869c-6.347,6.455-12.744,12.862-19.113,19.295
			c-1.399,1.413-2.75,2.874-4.139,4.329c5.434,9.976,4.913,18.07-1.624,24.516c-6.619,6.527-15.124,7.015-25.503,1.195
			c-5.593,5.794-11.264,11.697-16.97,17.565c-1.968,2.024-3.92,4.09-6.097,5.871c-0.686,0.561-2.227,1.089-3.15,0.349
			s-0.555-2.606-0.032-3.332c1.456-2.022,3.227-3.86,5.079-5.545C12.281,63.949,18.659,58.325,25.043,52.628z M30.248,51.712
			c5.18,5.043,14.542,4.483,19.875-0.862c5.69-5.702,5.668-14.992-0.049-20.679c-5.88-5.85-15.481-5.812-21.302,0.085
			c-5.221,5.289-5.669,14.322-0.716,19.302c1.546-1.79,2.994-3.656,4.661-5.299c0.597-0.588,1.791-0.988,2.585-0.831
			c0.688,0.136,1.631,1.158,1.669,1.832c0.045,0.797-0.574,1.864-1.236,2.422C34.022,49.128,32.126,50.357,30.248,51.712z
			 M2.63,76.513c2.732-0.524,4.185-2.028,4.377-4.402C4.572,72.046,2.798,73.755,2.63,76.513z"/>
	</g>
	<circle fill="#FFFFFF" cx="34.986" cy="35.132" r="2.38"/>
	<circle fill="#FFFFFF" cx="45.579" cy="35.132" r="2.38"/>
	<circle fill="#FFFFFF" cx="45.579" cy="45.265" r="2.38"/>
	<circle fill="#FFFFFF" cx="34.986" cy="45.265" r="2.38"/>
</g>
<g>
	<path fill="#FFFFFF" d="M65.027,24.418h1.88c0.428,0,0.7,0.199,0.818,0.597l7.896,25.723c0.162,0.591,0.31,1.262,0.443,2.013
		c0.074-0.368,0.147-0.722,0.221-1.062c0.074-0.338,0.162-0.655,0.266-0.951l8.847-25.723c0.059-0.162,0.162-0.302,0.309-0.42
		c0.147-0.118,0.324-0.177,0.531-0.177h0.62c0.206,0,0.376,0.055,0.509,0.166c0.133,0.111,0.236,0.255,0.31,0.431l8.847,25.723
		c0.103,0.296,0.195,0.605,0.276,0.93c0.081,0.324,0.159,0.671,0.232,1.039c0.074-0.354,0.144-0.697,0.21-1.029
		c0.066-0.332,0.136-0.644,0.21-0.94l7.896-25.723c0.045-0.162,0.144-0.302,0.299-0.42c0.155-0.118,0.335-0.177,0.542-0.177h1.725
		L98.07,55.715h-2.035l-9.245-27.161c-0.118-0.354-0.221-0.73-0.31-1.128c-0.088,0.398-0.191,0.774-0.31,1.128l-9.267,27.161h-2.013
		L65.027,24.418z"/>
	<path fill="#FFFFFF" d="M141.067,40.056c0,2.419-0.361,4.612-1.083,6.58c-0.723,1.969-1.74,3.65-3.052,5.043
		c-1.313,1.394-2.887,2.471-4.722,3.23c-1.836,0.759-3.859,1.139-6.072,1.139c-2.212,0-4.232-0.38-6.06-1.139
		c-1.829-0.759-3.399-1.835-4.711-3.23c-1.312-1.393-2.33-3.073-3.052-5.043c-0.722-1.968-1.083-4.161-1.083-6.58
		c0-2.403,0.361-4.589,1.083-6.558c0.722-1.968,1.74-3.65,3.052-5.043c1.312-1.393,2.883-2.473,4.711-3.24
		c1.828-0.766,3.848-1.15,6.06-1.15c2.212,0,4.236,0.38,6.072,1.139c1.835,0.759,3.41,1.839,4.722,3.24
		c1.312,1.401,2.329,3.086,3.052,5.054C140.707,35.466,141.067,37.652,141.067,40.056z M138.723,40.056
		c0-2.182-0.301-4.143-0.907-5.883c-0.605-1.74-1.459-3.215-2.566-4.424c-1.106-1.209-2.433-2.135-3.981-2.776
		s-3.259-0.962-5.132-0.962c-1.858,0-3.561,0.32-5.109,0.962c-1.548,0.641-2.879,1.567-3.992,2.776
		c-1.114,1.209-1.976,2.684-2.588,4.424c-0.612,1.74-0.918,3.701-0.918,5.883c0,2.197,0.305,4.162,0.918,5.895
		c0.612,1.733,1.474,3.204,2.588,4.413c1.113,1.209,2.444,2.13,3.992,2.764c1.548,0.634,3.251,0.951,5.109,0.951
		c1.873,0,3.583-0.317,5.132-0.951c1.548-0.634,2.875-1.555,3.981-2.764s1.96-2.681,2.566-4.413
		C138.421,44.217,138.723,42.253,138.723,40.056z"/>
	<path fill="#FFFFFF" d="M176.079,40.056c0,2.419-0.361,4.612-1.083,6.58c-0.723,1.969-1.74,3.65-3.052,5.043
		c-1.313,1.394-2.887,2.471-4.722,3.23c-1.835,0.759-3.859,1.139-6.071,1.139s-4.232-0.38-6.061-1.139
		c-1.828-0.759-3.398-1.835-4.71-3.23c-1.313-1.393-2.33-3.073-3.052-5.043c-0.723-1.968-1.084-4.161-1.084-6.58
		c0-2.403,0.361-4.589,1.084-6.558c0.722-1.968,1.739-3.65,3.052-5.043c1.312-1.393,2.883-2.473,4.71-3.24
		c1.829-0.766,3.849-1.15,6.061-1.15s4.236,0.38,6.071,1.139c1.835,0.759,3.41,1.839,4.722,3.24
		c1.312,1.401,2.329,3.086,3.052,5.054C175.718,35.466,176.079,37.652,176.079,40.056z M173.735,40.056
		c0-2.182-0.301-4.143-0.907-5.883c-0.605-1.74-1.459-3.215-2.566-4.424c-1.106-1.209-2.433-2.135-3.981-2.776
		s-3.259-0.962-5.131-0.962c-1.858,0-3.561,0.32-5.11,0.962c-1.547,0.641-2.879,1.567-3.992,2.776
		c-1.113,1.209-1.976,2.684-2.588,4.424c-0.612,1.74-0.918,3.701-0.918,5.883c0,2.197,0.306,4.162,0.918,5.895
		c0.612,1.733,1.475,3.204,2.588,4.413c1.113,1.209,2.445,2.13,3.992,2.764c1.548,0.634,3.252,0.951,5.11,0.951
		c1.872,0,3.583-0.317,5.131-0.951c1.548-0.634,2.875-1.555,3.981-2.764s1.96-2.681,2.566-4.413
		C173.433,44.217,173.735,42.253,173.735,40.056z"/>
	<path fill="#FFFFFF" d="M197.178,45.055h5.728v1.15c0,0.162-0.048,0.291-0.144,0.387c-0.096,0.096-0.247,0.144-0.453,0.144h-5.131
		v8.979h-1.858v-8.979h-14.797c-0.221,0-0.391-0.048-0.509-0.144c-0.117-0.096-0.199-0.226-0.242-0.387l-0.2-1.039l15.726-20.791
		h1.88V45.055z M195.32,28.665c0-0.251,0.011-0.524,0.033-0.818c0.021-0.295,0.047-0.597,0.077-0.907l-13.558,18.115h13.447V28.665z
		"/>
	<path fill="#FFFFFF" d="M224.559,47.93c0.089-0.221,0.184-0.449,0.288-0.685c0.103-0.236,0.213-0.457,0.332-0.663l12.275-21.742
		c0.118-0.191,0.24-0.31,0.365-0.354c0.125-0.044,0.291-0.066,0.498-0.066h1.548v31.297h-1.968V29.041
		c0-0.177,0.003-0.368,0.01-0.575c0.008-0.207,0.019-0.413,0.033-0.619l-12.297,21.852c-0.207,0.384-0.501,0.575-0.884,0.575h-0.354
		c-0.384,0-0.679-0.191-0.885-0.575l-12.651-21.897c0.045,0.428,0.067,0.841,0.067,1.239v26.674h-1.991V24.418h1.57
		c0.207,0,0.368,0.022,0.487,0.066c0.118,0.044,0.236,0.162,0.354,0.354l12.629,21.764C224.205,47.016,224.397,47.458,224.559,47.93
		z"/>
	<path fill="#FFFFFF" d="M267.866,24.418v1.88h-16.478V38.95h13.713v1.836h-13.713v13.05h16.522l-0.044,1.88H249.11V24.418H267.866z
		"/>
	<path fill="#FFFFFF" d="M276.368,24.496c0.111,0.052,0.232,0.166,0.365,0.343l20.282,27.117c-0.045-0.442-0.067-0.87-0.067-1.283
		V24.418h1.968v31.297h-1.061c-0.192,0-0.351-0.033-0.476-0.099c-0.126-0.067-0.248-0.181-0.365-0.343l-20.327-27.139
		c0.045,0.442,0.067,0.855,0.067,1.238v26.343h-1.991V24.418h1.128C276.099,24.418,276.258,24.444,276.368,24.496z"/>
</g>
</svg>
