<?xml version="1.0" encoding="utf-8"?>
<!-- Generator: Adobe Illustrator 17.0.0, SVG Export Plug-In . SVG Version: 6.00 Build 0)  -->
<!DOCTYPE svg PUBLIC "-//W3C//DTD SVG 1.1//EN" "http://www.w3.org/Graphics/SVG/1.1/DTD/svg11.dtd">
<svg version="1.1" id="Calque_1" xmlns="http://www.w3.org/2000/svg" xmlns:xlink="http://www.w3.org/1999/xlink" x="0px" y="0px"
	 width="24px" height="24px" viewBox="0 0 24 24" enable-background="new 0 0 24 24" xml:space="preserve">
<g>
	<path fill="#FFFFFF" d="M0.438,8.569C0.56,8.384,0.652,8.164,0.813,8.024C0.942,7.913,1.154,7.852,1.331,7.85
		c1.167-0.015,2.335-0.011,3.503-0.003c0.09,0.001,0.198,0.063,0.265,0.129c0.703,0.693,1.396,1.395,2.098,2.089
		c0.647,0.64,1.482,0.774,2.234,0.372c0.866-0.464,1.209-1.521,0.782-2.408c-0.025-0.052-0.046-0.107-0.076-0.176
		c1.259,0,2.497,0,3.713,0c-0.072,0.293-0.185,0.579-0.204,0.87c-0.052,0.791,0.378,1.466,1.092,1.788
		c0.687,0.31,1.487,0.152,2.078-0.43c0.704-0.692,1.394-1.398,2.099-2.087c0.085-0.083,0.23-0.145,0.348-0.146
		c1.062-0.011,2.125,0.012,3.186-0.014c0.572-0.014,0.962,0.178,1.142,0.736c0,0.995,0,1.99,0,2.985
		c-0.191,0.564-0.6,0.769-1.172,0.722c-0.199-0.016-0.4-0.003-0.593-0.003c-0.021,0.373,0.012,0.723-0.066,1.045
		c-0.557,2.291-1.13,4.578-1.714,6.862c-0.108,0.424-0.297,0.823-0.751,1.006c-4.839,0-9.677,0-14.516,0
		c-0.446-0.219-0.688-0.611-0.806-1.061c-0.432-1.651-0.852-3.305-1.25-4.964c-0.224-0.931-0.576-1.843-0.509-2.828
		c0.001-0.012-0.013-0.025-0.027-0.051c-0.066-0.003-0.14-0.008-0.213-0.009c-0.218-0.002-0.437,0.004-0.655-0.003
		c-0.474-0.015-0.724-0.309-0.88-0.717C0.438,10.558,0.438,9.564,0.438,8.569z M9.349,15.847L9.349,15.847
		c0.001-0.866,0.003-1.732,0-2.598c-0.002-0.563-0.368-0.965-0.881-0.975c-0.51-0.009-0.909,0.379-0.913,0.943
		c-0.011,1.747-0.01,3.495,0.004,5.242c0.002,0.198,0.079,0.418,0.185,0.588c0.201,0.32,0.619,0.435,0.98,0.32
		c0.366-0.117,0.619-0.45,0.622-0.853C9.354,17.624,9.349,16.735,9.349,15.847z M14.677,15.831c0,0.874,0.001,1.747-0.001,2.621
		c-0.001,0.286,0.085,0.536,0.303,0.725c0.281,0.244,0.604,0.304,0.947,0.156c0.392-0.169,0.549-0.495,0.55-0.905
		c0.001-1.725,0.005-3.449-0.006-5.174c-0.001-0.187-0.057-0.392-0.146-0.557c-0.186-0.345-0.599-0.493-0.972-0.391
		c-0.409,0.112-0.67,0.443-0.673,0.881C14.674,14.069,14.678,14.95,14.677,15.831z M12.916,15.843c0-0.843,0.005-1.687-0.004-2.53
		c-0.002-0.177-0.029-0.365-0.097-0.526c-0.159-0.373-0.586-0.578-0.968-0.497c-0.431,0.091-0.721,0.438-0.731,0.909
		c-0.011,0.512-0.003,1.024-0.003,1.536c0,1.228-0.002,2.455,0.001,3.683c0.001,0.501,0.266,0.865,0.688,0.965
		c0.593,0.141,1.108-0.288,1.113-0.941C12.921,17.575,12.916,16.709,12.916,15.843z"/>
	<path fill="#FFFFFF" d="M2.332,1.69c0.259-0.009,0.474,0.143,0.673,0.342C4.18,3.211,5.359,4.388,6.536,5.565
		c0.799,0.799,1.598,1.599,2.398,2.397C9.193,8.22,9.317,8.517,9.211,8.883c-0.168,0.582-0.854,0.82-1.345,0.464
		C7.794,9.295,7.729,9.231,7.665,9.167c-1.967-1.966-3.932-3.932-5.9-5.897C1.572,3.077,1.429,2.868,1.422,2.583
		C1.41,2.08,1.792,1.687,2.332,1.69z"/>
	<path fill="#FFFFFF" d="M21.616,1.685c0.471,0.013,0.729,0.161,0.886,0.459c0.16,0.304,0.141,0.609-0.044,0.9
		C22.422,3.1,22.376,3.153,22.329,3.2c-2.013,2.015-4.027,4.029-6.043,6.042c-0.241,0.24-0.532,0.334-0.869,0.237
		c-0.597-0.172-0.832-0.861-0.461-1.359c0.054-0.072,0.118-0.137,0.182-0.201c1.96-1.961,3.922-3.921,5.882-5.883
		C21.223,1.832,21.444,1.676,21.616,1.685z"/>
</g>
</svg>
