<?xml version="1.0" encoding="utf-8"?>
<!-- Generator: Adobe Illustrator 17.0.0, SVG Export Plug-In . SVG Version: 6.00 Build 0)  -->
<!DOCTYPE svg PUBLIC "-//W3C//DTD SVG 1.1//EN" "http://www.w3.org/Graphics/SVG/1.1/DTD/svg11.dtd">
<svg version="1.1" id="Calque_1" xmlns="http://www.w3.org/2000/svg" xmlns:xlink="http://www.w3.org/1999/xlink" x="0px" y="0px"
	 width="24px" height="24px" viewBox="0 0 24 24" enable-background="new 0 0 24 24" xml:space="preserve">
<path fill="#FFFFFF" d="M20.504,18.78l-4.037-4.037c0.777-1.155,1.232-2.544,1.232-4.037c0-3.999-3.254-7.253-7.253-7.253
	s-7.253,3.254-7.253,7.253s3.254,7.253,7.253,7.253c1.758,0,3.35-0.654,4.607-1.699l3.986,3.986
	c0.202,0.202,0.467,0.304,0.733,0.304s0.53-0.101,0.733-0.304C20.909,19.84,20.909,19.184,20.504,18.78z M5.265,10.705
	c0-2.857,2.323-5.181,5.181-5.181s5.181,2.324,5.181,5.181s-2.323,5.181-5.181,5.181S5.265,13.561,5.265,10.705z"/>
</svg>
